<svg xmlns="http://www.w3.org/2000/svg" viewBox="0 0 170.43 42.43"><defs><style>.cls-1{fill:#ffc600;fill-rule:evenodd;}.cls-2{fill:#fff;}.cls-3{fill:#231815;}</style></defs><title>未命名-1</title><g id="圖層_1" data-name="圖層 1"><path class="cls-1" d="M72.1,3.22l-4.49.49L63.4,0,61.31.17,64.55,4l-3,.33-2.15-1.8-2.06.09,2.51,3.06h0c1,1.13,1.4,1.1,4.46.85l8.15-.66a1.41,1.41,0,0,0,1.18-1.46A1.58,1.58,0,0,0,72.1,3.22Z" transform="translate(0)"/><path class="cls-2" d="M15.36,9.07l.8-1.5.91-1.69q.37-.68.44-.77a1.14,1.14,0,0,0,.18-1,.76.76,0,0,0-.78-.41H15.66a2.32,2.32,0,0,0-1.24.42,3,3,0,0,0-1,1L12,7.67,10.9,9.85c-4.57.92-9.45,2.31-10.69,4.06-1.41,2,4.47,2.53,7.24,2.67l-1.52,3q-1,1.91-1.67,3.37t-.89,2a7.92,7.92,0,0,0-.48,2.3,4.52,4.52,0,0,0,.29,1.95A2.32,2.32,0,0,0,4.29,30.4a3,3,0,0,0,2,.13c3.72-.76,10.84-9.91,10.84-9.91-10.89,8-10,5.68-10,5.68a5.4,5.4,0,0,1,.51-1.9q.27-.61,1-2.06T10.19,19q.94-1.86,2-3.92c.63-1.21,1.2-2.39,1.78-3.51C17.07,11.16,24.89,9.9,55.69,7a11.35,11.35,0,0,0-1.49-2.3,2.19,2.19,0,0,0-2-.79C20.76,7.85,15.36,9.07,15.36,9.07ZM2.16,14.44C1.38,13.88,6,12.76,9.67,12.1c-.51,1-1.12,2.31-1.66,3.39l-.08.15C6,15.44,2.83,14.92,2.16,14.44Z" transform="translate(0)"/><path class="cls-2" d="M21.39,23.68c.25-.46.47-1,.79-1.59s.66-1.15,1-1.72.65-1,.86-1.44a4.27,4.27,0,0,0-1.48.83,15.11,15.11,0,0,0-1.64,1.52,21.93,21.93,0,0,0-1.54,1.84A13,13,0,0,0,18.22,25l-.81,1.59-.65,1.29q-.35.64-.59,1.14a3.16,3.16,0,0,1-1,1,2.34,2.34,0,0,1-1.24.4H12.67a.72.72,0,0,1-.76-.42,1.16,1.16,0,0,1,.19-1L18.38,16.9a2.63,2.63,0,0,1,1-1,2.46,2.46,0,0,1,1.24-.38h1.23a.76.76,0,0,1,.77.4,1.08,1.08,0,0,1-.18,1l-1.11,2A15.09,15.09,0,0,1,23.56,17a12.69,12.69,0,0,1,2.08-1.21,5,5,0,0,1,1.69-.47,1.52,1.52,0,0,1,1.08.25,1.45,1.45,0,0,1,.34,1.63,9.08,9.08,0,0,1-1,2.14q-.69,1.1-1.39,2.08a4.26,4.26,0,0,0-.79,1.44,8.08,8.08,0,0,0,2.13-1.19l3.17-2.41s-3.77,5-5.63,5.81a6.28,6.28,0,0,1-2.35.7C20.33,25.87,21.39,23.68,21.39,23.68Z" transform="translate(0)"/><path class="cls-2" d="M58.71,23.68c.25-.46.47-1,.79-1.59s.66-1.15,1-1.72.65-1,.86-1.44a4.27,4.27,0,0,0-1.48.83,15.08,15.08,0,0,0-1.64,1.52,21.89,21.89,0,0,0-1.54,1.84A13,13,0,0,0,55.53,25l-.81,1.59-.65,1.29q-.35.64-.59,1.14a3.16,3.16,0,0,1-1,1,2.34,2.34,0,0,1-1.24.4H50a.72.72,0,0,1-.76-.42,1.16,1.16,0,0,1,.19-1L55.69,16.9a2.63,2.63,0,0,1,1-1,2.46,2.46,0,0,1,1.24-.38h1.23a.76.76,0,0,1,.77.4,1.08,1.08,0,0,1-.18,1l-1.11,2A15.06,15.06,0,0,1,60.87,17,12.69,12.69,0,0,1,63,15.76a5,5,0,0,1,1.69-.47,1.52,1.52,0,0,1,1.08.25,1.45,1.45,0,0,1,.34,1.63,9.08,9.08,0,0,1-1,2.14q-.69,1.1-1.39,2.08a4.26,4.26,0,0,0-.79,1.44A8.08,8.08,0,0,0,65,21.65l3.17-2.41s-3.77,5-5.63,5.81a6.27,6.27,0,0,1-2.35.7C57.65,25.87,58.71,23.68,58.71,23.68Z" transform="translate(0)"/><path class="cls-2" d="M82.78,19.68a1.56,1.56,0,0,1-.28.87,33.54,33.54,0,0,1-2.66,3.26A33.22,33.22,0,0,1,76.49,27,22.78,22.78,0,0,1,73,29.44a6.88,6.88,0,0,1-3.29,1,4.61,4.61,0,0,1-3.34-1.1A4.49,4.49,0,0,1,65,26.54a8.06,8.06,0,0,1,.45-3.6,11.88,11.88,0,0,1,2-3.6,11.17,11.17,0,0,1,3.32-2.77,9,9,0,0,1,4.43-1.1,4.61,4.61,0,0,1,1.75.32,3.2,3.2,0,0,1,1.24.85,2.17,2.17,0,0,1,.51,1.29,3.07,3.07,0,0,1-.41,1.65,6.15,6.15,0,0,1-1.39,1.78,10.56,10.56,0,0,1-2.19,1.53A15.31,15.31,0,0,1,71.87,24a15.45,15.45,0,0,1-3.28.59,3.88,3.88,0,0,0,.3,1.84,1.73,1.73,0,0,0,1.24,1,3.49,3.49,0,0,0,2.27-.34A27.47,27.47,0,0,0,82.78,19.68Zm-9.95-2.14a4.41,4.41,0,0,0-1.29.78,6.71,6.71,0,0,0-1.14,1.27,10.35,10.35,0,0,0-.91,1.59,10.25,10.25,0,0,0-.62,1.69A10.85,10.85,0,0,0,72,22.09a7.51,7.51,0,0,0,2.05-1.27,3.69,3.69,0,0,0,1-1.44,2,2,0,0,0,.11-1.25,1.12,1.12,0,0,0-.77-.72A2.53,2.53,0,0,0,72.83,17.54Z" transform="translate(0)"/><path class="cls-2" d="M81.69,18.47a5.34,5.34,0,0,1,2.53-2.12,10.3,10.3,0,0,1,4.18-.76,4.26,4.26,0,0,1,1.93.38q.75.38.33,1.53a5.1,5.1,0,0,1-.9,1.44A3.68,3.68,0,0,1,88.2,20a6.21,6.21,0,0,1-1,.19,3.19,3.19,0,0,1-1,0,1.21,1.21,0,0,1-.65-.3q-.21-.21,0-.59.13-.21.33-.49a4.6,4.6,0,0,0,.36-.57,2.63,2.63,0,0,0,.22-.53.4.4,0,0,0-.1-.4,2.42,2.42,0,0,0-1.39.3,2.27,2.27,0,0,0-1.11,1.1A1,1,0,0,0,84,19.85a3.81,3.81,0,0,0,1,.91q.67.42,1.5.91A7,7,0,0,1,88,22.79a3.66,3.66,0,0,1,.9,1.52,3.51,3.51,0,0,1-.17,2.16,5,5,0,0,1-1.11,1.8,6.16,6.16,0,0,1-1.71,1.27,7.37,7.37,0,0,1-2.14.68,10.22,10.22,0,0,1-2.37.11,4.25,4.25,0,0,1-2.61-.93,3.28,3.28,0,0,1-1.09-1.76,3.1,3.1,0,0,1,.17-1.84A2.38,2.38,0,0,1,79,24.53a2.16,2.16,0,0,1,1-.21,5.12,5.12,0,0,1,1.19.13,2,2,0,0,1,.83.38q.3.25,0,.59t-.54.74a3.36,3.36,0,0,0-.44.93A1.91,1.91,0,0,0,81,28a.76.76,0,0,0,.57.57,2.46,2.46,0,0,0,1.13.17,3.34,3.34,0,0,0,1.21-.32,3.46,3.46,0,0,0,1-.76,2.5,2.5,0,0,0,.62-1.25,1.52,1.52,0,0,0-.29-1.31,5.83,5.83,0,0,0-1.1-1q-.66-.49-1.41-1A4.89,4.89,0,0,1,81.51,22,2.47,2.47,0,0,1,81,20.5,3.88,3.88,0,0,1,81.69,18.47Z" transform="translate(0)"/><path class="cls-2" d="M93.27,18.47a5.34,5.34,0,0,1,2.53-2.12,10.3,10.3,0,0,1,4.18-.76,4.26,4.26,0,0,1,1.93.38q.75.38.32,1.53a5.08,5.08,0,0,1-.9,1.44A3.68,3.68,0,0,1,99.79,20a6.21,6.21,0,0,1-1,.19,3.19,3.19,0,0,1-1,0,1.21,1.21,0,0,1-.65-.3q-.21-.21,0-.59c.09-.14.2-.3.33-.49a4.6,4.6,0,0,0,.36-.57,2.63,2.63,0,0,0,.22-.53.4.4,0,0,0-.1-.4,2.42,2.42,0,0,0-1.39.3,2.28,2.28,0,0,0-1.11,1.1,1,1,0,0,0,.06,1.12,3.81,3.81,0,0,0,1,.91q.67.42,1.5.91a7,7,0,0,1,1.46,1.12,3.66,3.66,0,0,1,.9,1.52,3.51,3.51,0,0,1-.17,2.16,5,5,0,0,1-1.11,1.8,6.15,6.15,0,0,1-1.71,1.27,7.37,7.37,0,0,1-2.14.68,10.22,10.22,0,0,1-2.37.11,4.25,4.25,0,0,1-2.61-.93,3.28,3.28,0,0,1-1.09-1.76,3.1,3.1,0,0,1,.17-1.84,2.38,2.38,0,0,1,1.1-1.27,2.16,2.16,0,0,1,1-.21,5.12,5.12,0,0,1,1.19.13,2,2,0,0,1,.83.38q.3.25,0,.59t-.54.74a3.34,3.34,0,0,0-.44.93,1.9,1.9,0,0,0-.07.89.76.76,0,0,0,.57.57,2.46,2.46,0,0,0,1.13.17,3.33,3.33,0,0,0,1.21-.32,3.47,3.47,0,0,0,1-.76,2.5,2.5,0,0,0,.61-1.25,1.52,1.52,0,0,0-.29-1.31,5.81,5.81,0,0,0-1.1-1q-.66-.49-1.41-1A4.88,4.88,0,0,1,93.09,22a2.47,2.47,0,0,1-.5-1.46A3.86,3.86,0,0,1,93.27,18.47Z" transform="translate(0)"/><path class="cls-2" d="M114,16.44a3.91,3.91,0,0,1,1.12,1.93,6,6,0,0,1,.05,2.56,10.65,10.65,0,0,1-1,2.88,12.62,12.62,0,0,1-2,2.84,12.82,12.82,0,0,1-2.57,2.27,10.42,10.42,0,0,1-2.7,1.31,6.38,6.38,0,0,1-2.53.28,3.41,3.41,0,0,1-2-.89,3.63,3.63,0,0,1-1.14-1.93,6.24,6.24,0,0,1,0-2.56,11.07,11.07,0,0,1,1-2.88,12.09,12.09,0,0,1,2-2.84,12.08,12.08,0,0,1,2.56-2.31,10.34,10.34,0,0,1,2.72-1.31,6.16,6.16,0,0,1,2.54-.25A3.72,3.72,0,0,1,114,16.44Zm-2.9,7.45a12.9,12.9,0,0,0,1-2.08,8.2,8.2,0,0,0,.45-1.91,4.18,4.18,0,0,0-.1-1.55,1.64,1.64,0,0,0-.62-1,1.49,1.49,0,0,0-1.11-.17,3.39,3.39,0,0,0-1.32.64A9.4,9.4,0,0,0,108,19.19a11.06,11.06,0,0,0-1.33,1.86,11.51,11.51,0,0,0-.95,2.08,8.9,8.9,0,0,0-.43,1.88,4,4,0,0,0,.09,1.52,1.63,1.63,0,0,0,.62,1,1.48,1.48,0,0,0,1.11.17,3.56,3.56,0,0,0,1.33-.61,7.85,7.85,0,0,0,1.39-1.29A11.8,11.8,0,0,0,111.09,23.89Z" transform="translate(0)"/><path class="cls-2" d="M40.18,29.23A3.18,3.18,0,0,1,39.53,28c-.9,1.84-1.57,3.54-2.52,5.6s-1.89,4.18-2.85,6.35a.66.66,0,0,1-.82.47,2.51,2.51,0,0,1-1.16-.64,3.67,3.67,0,0,1-.9-1.29,2.16,2.16,0,0,1-.1-1.55q.08-.25.55-1.25t1.2-2.46c.48-1,.77-1.8,1.37-3s1.22-2.36,1.86-3.58,1.25-2.4,1.84-3.56L39.59,20q.7-1.35,1.16-2.2t.49-.89a2.62,2.62,0,0,1,1-1,2.46,2.46,0,0,1,1.24-.38h1.23a.76.76,0,0,1,.77.4,1.08,1.08,0,0,1-.18,1l-.55.93a12.25,12.25,0,0,1,3.78-2.1,3,3,0,0,1,3,.4A2.9,2.9,0,0,1,52.44,18a6.94,6.94,0,0,1-.21,2.63,13.68,13.68,0,0,1-1.2,3,20.16,20.16,0,0,1-2,3A11.62,11.62,0,0,1,46.61,29a7.74,7.74,0,0,1-2.49,1.16,4.9,4.9,0,0,1-2.25.06A3.09,3.09,0,0,1,40.18,29.23Zm2.42-7.07a16.13,16.13,0,0,0-1.24,2.44,6.37,6.37,0,0,0-.45,1.78A2.68,2.68,0,0,0,41,27.58a1.39,1.39,0,0,0,.53.68,2.18,2.18,0,0,0,2.25-.32A7.86,7.86,0,0,0,46.43,25q.61-1.06,1.09-2.1a11.28,11.28,0,0,0,.72-1.95,4.76,4.76,0,0,0,.18-1.57,1.27,1.27,0,0,0-.45-1,1.22,1.22,0,0,0-1-.15,4.27,4.27,0,0,0-1.4.66A9.22,9.22,0,0,0,44,20.27,10,10,0,0,0,42.6,22.16Z" transform="translate(0)"/><path class="cls-2" d="M39.95,21s-3.87,4.79-5.76,6.87a12,12,0,0,1-2,1.63,4.77,4.77,0,0,1-1.87.87,2.88,2.88,0,0,1-1.93-.13A2.28,2.28,0,0,1,27.34,29a4.26,4.26,0,0,1-.29-1.88,6.79,6.79,0,0,1,.52-2.22q.31-.85.9-2.1t1.22-2.46q.62-1.21,1.16-2.18t.74-1.27a2.63,2.63,0,0,1,1-1,2.46,2.46,0,0,1,1.24-.38h1.23a.76.76,0,0,1,.77.4,1.08,1.08,0,0,1-.18,1l-.62,1q-.49.8-1.06,1.93l-1.2,2.33q-.62,1.21-1.07,2.22a4.84,4.84,0,0,0-.55,1.84q0,.57.38.66c.3.08.69-.16,1.32-.55a23.61,23.61,0,0,0,3.5-2.56Z" transform="translate(0)"/><path class="cls-2" d="M37.58,12a1.51,1.51,0,0,1-.27,1.26,1.38,1.38,0,0,1-1.15.52,2.05,2.05,0,0,1-1.36-.52A2.12,2.12,0,0,1,34.05,12a1.43,1.43,0,0,1,.29-1.25,1.45,1.45,0,0,1,1.17-.5,2,2,0,0,1,1.34.5A2.09,2.09,0,0,1,37.58,12Z" transform="translate(0)"/><path class="cls-3" d="M69.9,6.21" transform="translate(0)"/><path class="cls-2" d="M122.06,17.92h-1a.67.67,0,0,1-.33-.13.4.4,0,0,1-.16-.33.53.53,0,0,1,.13-.35.57.57,0,0,1,.37-.13h2V15.54a.48.48,0,0,1,.11-.35.51.51,0,0,1,.35-.13.61.61,0,0,1,.33.13.48.48,0,0,1,.14.35V17h2a.55.55,0,0,1,.32.11.41.41,0,0,1,.16.33.53.53,0,0,1-.13.35.51.51,0,0,1-.35.14h-3v1.37q0,.29,0,.62h1.29a2.24,2.24,0,0,1,.92.19,1.39,1.39,0,0,1,.62.52,2.2,2.2,0,0,1,.22,1.16q0,3.35-.13,4.7a14.79,14.79,0,0,1-.35,2.15,1.45,1.45,0,0,1-.67.89,1.85,1.85,0,0,1-.91.11,5.62,5.62,0,0,1-1.26-.29.65.65,0,0,1-.35-.25.62.62,0,0,1,0-.41.48.48,0,0,1,.25-.29.73.73,0,0,1,.43,0,4.41,4.41,0,0,0,.78.22,1.21,1.21,0,0,0,.52,0,1.25,1.25,0,0,0,.4-.76,15.65,15.65,0,0,0,.25-2.23q.1-1.34.1-3.93a.72.72,0,0,0-.25-.65,1.15,1.15,0,0,0-.7-.19h-1.19q-.06.92-.13,2a32,32,0,0,1-.49,3.48,28.16,28.16,0,0,1-.78,3,.55.55,0,0,1-.27.3.46.46,0,0,1-.33,0,.4.4,0,0,1-.27-.21.74.74,0,0,1,0-.43q.38-1.21.72-2.75a22.86,22.86,0,0,0,.51-3.5q.16-2.1.16-3.5Zm4.77,2.19a.32.32,0,0,1-.33-.14.54.54,0,0,1-.14-.37.8.8,0,0,1,.22-.41,5.31,5.31,0,0,0,1-1.73,7.82,7.82,0,0,0,.41-1.91.45.45,0,0,1,.17-.37.47.47,0,0,1,.32-.11.66.66,0,0,1,.33.16.55.55,0,0,1,.11.4q-.06.46-.16.91h6.12a.55.55,0,0,1,.32.11.41.41,0,0,1,.16.33.53.53,0,0,1-.13.35.51.51,0,0,1-.35.14h-6.36l-.13.4a6.46,6.46,0,0,1-1.14,2A.6.6,0,0,1,126.82,20.12Zm7.07-1.53a.53.53,0,0,1,.38,0,.51.51,0,0,1,.24.27.54.54,0,0,1,0,.37.43.43,0,0,1-.25.25,15.79,15.79,0,0,1-2.61.83l-.14,0q0,.91.08,1.62a15.15,15.15,0,0,0,.24,1.64,12.44,12.44,0,0,0,2.46-1.4.46.46,0,0,1,.7.06.64.64,0,0,1,.08.35.52.52,0,0,1-.22.33,14.51,14.51,0,0,1-2.76,1.57l.32.76a11.76,11.76,0,0,0,1.18,2.05A10.3,10.3,0,0,0,135,28.92a.48.48,0,0,1,.17.37.41.41,0,0,1-.14.33.53.53,0,0,1-.3.14.52.52,0,0,1-.38-.16,9.77,9.77,0,0,1-1.56-1.72,13.66,13.66,0,0,1-1.29-2.27,10.72,10.72,0,0,1-.87-3.64q-.08-.68-.1-1.41l-1.48.29v8.42a.49.49,0,0,1-.14.37.51.51,0,0,1-.33.14.61.61,0,0,1-.33-.13.55.55,0,0,1-.13-.38V21l-.81.1A.49.49,0,0,1,127,21a.44.44,0,0,1-.17-.32.47.47,0,0,1,.08-.37.41.41,0,0,1,.32-.18,29.37,29.37,0,0,0,4-.67A19,19,0,0,0,133.9,18.59Z" transform="translate(0)"/><path class="cls-2" d="M141.83,27.92a6.14,6.14,0,0,0,3.18.7h6.93a.51.51,0,0,1,.33.13.52.52,0,0,1,.14.38.36.36,0,0,1-.14.3.45.45,0,0,1-.33.13H145a6.61,6.61,0,0,1-3.8-1,5.4,5.4,0,0,1-.72-.59,4.79,4.79,0,0,1-2.23,1.73.47.47,0,0,1-.32,0,.34.34,0,0,1-.24-.21.54.54,0,0,1,0-.38.35.35,0,0,1,.21-.27q2-.87,2-2.11V21.9a.65.65,0,0,0-.73-.73h-.91A.6.6,0,0,1,138,21a.44.44,0,0,1-.14-.37.48.48,0,0,1,.13-.32.45.45,0,0,1,.33-.13h1.14a1.27,1.27,0,0,1,1.43,1.41v5.09Q140.86,27.33,141.83,27.92ZM138,16a.47.47,0,0,1,.06-.37.56.56,0,0,1,.29-.22.62.62,0,0,1,.4.08A10.1,10.1,0,0,1,140.69,17a.56.56,0,0,1,.18.35.46.46,0,0,1-.46.49.6.6,0,0,1-.38-.16,7.85,7.85,0,0,0-1.75-1.38A.47.47,0,0,1,138,16Zm6,3.24h.83a2.25,2.25,0,0,1,.92.19,1.39,1.39,0,0,1,.62.52,2.19,2.19,0,0,1,.22,1.16q0,2.64-.11,3.7a11.09,11.09,0,0,1-.25,1.68,1.09,1.09,0,0,1-.52.7,1.71,1.71,0,0,1-.79.16,5.94,5.94,0,0,1-1.14-.18.67.67,0,0,1-.37-.24.48.48,0,0,1,0-.4.51.51,0,0,1,.22-.3.53.53,0,0,1,.43,0,2.44,2.44,0,0,0,.7.13,1.13,1.13,0,0,0,.46,0,1,1,0,0,0,.25-.59,10.54,10.54,0,0,0,.18-1.69q.06-1,.06-3a.71.71,0,0,0-.25-.65,1.14,1.14,0,0,0-.7-.19h-.73q0,.76-.13,1.73a17.22,17.22,0,0,1-.45,2.45,20.29,20.29,0,0,1-.73,2.15.55.55,0,0,1-.27.29.56.56,0,0,1-.35,0,.43.43,0,0,1-.25-.24.62.62,0,0,1,0-.43,18.74,18.74,0,0,0,.64-1.89,13.33,13.33,0,0,0,.46-2.42q.14-1.45.14-2.42V17.6h-.87a.68.68,0,0,1-.33-.13.41.41,0,0,1-.16-.33.53.53,0,0,1,.13-.35.57.57,0,0,1,.37-.13h1.76V15.54a.48.48,0,0,1,.11-.35.51.51,0,0,1,.35-.13.61.61,0,0,1,.33.13.48.48,0,0,1,.14.35v1.13h1.56a.55.55,0,0,1,.32.11.41.41,0,0,1,.16.33.53.53,0,0,1-.13.35.51.51,0,0,1-.35.14H144Zm4.15-4.12a.39.39,0,0,1,.32-.1.63.63,0,0,1,.29.16.44.44,0,0,1,.06.37q-.06.3-.16.7H152a.56.56,0,0,1,.32.11.41.41,0,0,1,.16.33.53.53,0,0,1-.13.35.51.51,0,0,1-.35.14h-3.69q-.14.43-.3.83a5.41,5.41,0,0,1-.52,1,.45.45,0,0,1-.3.21.44.44,0,0,1-.32-.06.63.63,0,0,1-.19-.29.6.6,0,0,1,.11-.35,7.56,7.56,0,0,0,.73-1.43,12.46,12.46,0,0,0,.41-1.61A.47.47,0,0,1,148.11,15.16Zm3.77,3.19a.47.47,0,0,1,.17.38.8.8,0,0,1-.27.48l-1.22,1.72a1.28,1.28,0,0,0-.11.48,1.78,1.78,0,0,0,0,.43,4.34,4.34,0,0,1,.49.75h.89a.55.55,0,0,1,.32.11.41.41,0,0,1,.16.33.53.53,0,0,1-.13.35.51.51,0,0,1-.35.14h-.56a4.86,4.86,0,0,1,.17,1.54,3.66,3.66,0,0,1-.21,1.22,2.64,2.64,0,0,1-.56.89,1.65,1.65,0,0,1-.81.45,3.7,3.7,0,0,1-1,.13,1.75,1.75,0,0,1-.73-.21,2.74,2.74,0,0,1-.78-.67.52.52,0,0,1-.18-.37.48.48,0,0,1,.14-.35.49.49,0,0,1,.35-.16.47.47,0,0,1,.37.19,1.41,1.41,0,0,0,.51.43,1.25,1.25,0,0,0,.51.14,2.85,2.85,0,0,0,.52-.08,1.1,1.1,0,0,0,.43-.27,1.34,1.34,0,0,0,.32-.56,2,2,0,0,0,.14-.84,5,5,0,0,0-.17-1.49h-2.91a.69.69,0,0,1-.33-.13.41.41,0,0,1-.16-.33.53.53,0,0,1,.13-.35.57.57,0,0,1,.37-.13h2.49a2.84,2.84,0,0,0-.41-.57.72.72,0,0,1-.22-.56.85.85,0,0,1,.27-.57l1.19-1.68h-2.3a.46.46,0,0,1-.38-.14.49.49,0,0,1-.13-.33.51.51,0,0,1,.13-.33.55.55,0,0,1,.38-.13h2.75A1,1,0,0,1,151.88,18.35Z" transform="translate(0)"/><path class="cls-2" d="M165.21,28.13a1.83,1.83,0,0,1-.78,1.19,1.09,1.09,0,0,1-.82.24,7.2,7.2,0,0,1-1.73-.25.67.67,0,0,1-.36-.24.48.48,0,0,1,0-.4.51.51,0,0,1,.22-.3.53.53,0,0,1,.43,0,6.17,6.17,0,0,0,1.34.22c.36,0,.24,0,.44-.14a1.7,1.7,0,0,0,.49-1,25.55,25.55,0,0,0,.33-3q.11-1.83.11-5.37a.71.71,0,0,0-.25-.65,1.14,1.14,0,0,0-.7-.19h-.81q0,1.62-.29,3.86a23.11,23.11,0,0,1-.84,4,23.91,23.91,0,0,1-1.34,3.45.48.48,0,0,1-.29.29.51.51,0,0,1-.33,0,.44.44,0,0,1-.25-.24.61.61,0,0,1,0-.43A25.53,25.53,0,0,0,161,25.84a19.36,19.36,0,0,0,.87-4q.25-2.26.27-3.78H160.5a.45.45,0,0,1-.38-.14.58.58,0,0,1-.14-.35.38.38,0,0,1,.14-.32.55.55,0,0,1,.38-.13h1.64V15.59a.69.69,0,0,1,.13-.38.45.45,0,0,1,.33-.13.49.49,0,0,1,.32.13.46.46,0,0,1,.16.38v1.57H164a2.24,2.24,0,0,1,.92.19,1.38,1.38,0,0,1,.62.52,2.19,2.19,0,0,1,.22,1.16q0,4.45-.16,6.26A19.07,19.07,0,0,1,165.21,28.13ZM167,16.58a1.45,1.45,0,0,1,1.06-.43H169a1.51,1.51,0,0,1,1.06.4,1.43,1.43,0,0,1,.38,1V27.72a1.4,1.4,0,0,1-1.54,1.45h-.84a1.45,1.45,0,0,1-1-.41,1.32,1.32,0,0,1-.4-1V17.58A1.48,1.48,0,0,1,167,16.58Zm.57,10.84a1,1,0,0,0,.24.62.81.81,0,0,0,.59.19h.2a1.1,1.1,0,0,0,.63-.18.81.81,0,0,0,.27-.64V17.93a.9.9,0,0,0-.25-.62.69.69,0,0,0-.56-.22h-.29a.8.8,0,0,0-.59.21.89.89,0,0,0-.24.64ZM156,16.58a1.45,1.45,0,0,1,1.07-.43H158a1.51,1.51,0,0,1,1.06.4,1.43,1.43,0,0,1,.38,1V27.72a1.4,1.4,0,0,1-1.54,1.45h-.83a1.45,1.45,0,0,1-1-.41,1.32,1.32,0,0,1-.4-1V17.58A1.49,1.49,0,0,1,156,16.58Zm.57,10.84a1,1,0,0,0,.24.62.81.81,0,0,0,.59.19h.2a1.11,1.11,0,0,0,.64-.18.81.81,0,0,0,.27-.64V17.93a.89.89,0,0,0-.25-.62.69.69,0,0,0-.56-.22h-.29a.8.8,0,0,0-.59.21.89.89,0,0,0-.24.64Z" transform="translate(0)"/><path class="cls-2" d="M140.62,23.5" transform="translate(0)"/><path class="cls-2" d="M85.84,38.24h.9c.25,0,.25,0,.25-.09a4.78,4.78,0,0,0-.21-.59.06.06,0,0,1,.06,0c.13,0,.87.59.87,1.11a.36.36,0,0,1-.35.39c-.24,0-.26-.18-.31-.45s0-.16-.1-.16a2.09,2.09,0,0,0-.41.11,4.07,4.07,0,0,0,0,.79c0,.39,0,2.12,0,2.48a.51.51,0,0,1-.48.54c-.15,0-.17-.15-.17-.38,0-.41.06-2.23.06-2.6a4.53,4.53,0,0,0,0-.63c0-.07,0-.09-.16-.09a4.93,4.93,0,0,0-.83.16s-.22.15-.26.15-.33-.72-.33-.74,0,0,0,0l.4,0,.45,0c.22,0,.25-.06.56-.65a20.56,20.56,0,0,0,.93-1.92c.08-.23.09-.25.14-.25s.76.34.76.48,0,.07-.22.14a.55.55,0,0,0-.27.19c-.39.51-.93,1.39-1.35,1.87,0,0-.06.1,0,.13S85.81,38.24,85.84,38.24Zm-.21,1.51c0,.06-.2.25-.23.31-.2.37-.45,1-.69,1.37,0,0-.22.33-.31.33a0,0,0,0,1,0,0s.27-.83.31-1a5.23,5.23,0,0,0,.19-1.21c0-.16,0-.19.05-.19a2.39,2.39,0,0,1,.35.13C85.51,39.58,85.63,39.65,85.63,39.75Zm0-3.46a.71.71,0,0,1,.34.56.27.27,0,0,1-.27.29.29.29,0,0,1-.2-.09c-.07-.08-.4-.54-.48-.63s-.5-.45-.5-.47,0,0,.07,0,.52.15.62.15.08,0,.21-.34a4,4,0,0,0,.37-1.51s0-.1.05-.1.84.27.84.46c0,0,0,.08,0,.1s-.25.11-.28.15-.51.71-.61.84-.32.41-.3.49A1.21,1.21,0,0,0,85.62,36.29Zm1.59,2.9s0,0,0-.06,0,0,0,0l1.19.05a.29.29,0,0,0,.26-.13c.09-.13.14-.18.23-.18s.59.25.59.44a.13.13,0,0,1-.09.11c-.19.07-.19.07-.25.19a6.41,6.41,0,0,1-1,1.58,4.2,4.2,0,0,1-1.49,1.05s0,0,0,0,0,0,.05-.08a9.77,9.77,0,0,0,.93-1,4.78,4.78,0,0,0,.92-1.67c0-.07,0-.07-.3-.07l-.75,0s0,0-.08-.05Zm.48,1.39a.35.35,0,0,1-.31.39c-.2,0-.22-.24-.26-.62a2.35,2.35,0,0,0-.25-.68s0-.08,0-.1a0,0,0,0,1,0,0,1.45,1.45,0,0,1,.39.29A1.23,1.23,0,0,1,87.69,40.58Zm1-2.47a.27.27,0,0,0-.26.1.51.51,0,0,1-.38.25c-.21,0-.21-.14-.21-.38s0-1.57,0-1.86,0-.9,0-1.06,0-.06.05-.06.51.3.62.3.74-1,.74-1.19,0-.13.07-.13l.53.25c.13.06.25.13.25.2s-.37.16-.44.2a2.53,2.53,0,0,0-.67.63c0,.05,0,.05.17.05H91c.19,0,.25,0,.33-.13.2-.31.23-.35.32-.35s.63.34.63.54a.26.26,0,0,1-.11.18c-.13.11-.16.14-.16.3s0,.82,0,1,.06,1,.06,1.07c0,.41-.44.44-.48.44s-.14,0-.2-.22-.14-.11-.21-.11h-1s-.08,0-.08,0,0,0,.17.11.26.1.26.21,0,.08-.16.19a.15.15,0,0,0-.05.11,6.6,6.6,0,0,0,.33.69c.07.14.19.36.3.36s.84-.65,1-.88c0,0,.1-.12.12-.12a2.64,2.64,0,0,1,.64.64s0,0-.05,0a2,2,0,0,1-.24,0c-.26,0-.45.09-1.23.45C91,40,91,40,91,40.08a4.31,4.31,0,0,0,1.58,1.6c.29.17.33.18.33.22s0,0-.15,0a2.15,2.15,0,0,0-.52.1,1.5,1.5,0,0,1-.27.13,7.06,7.06,0,0,1-1.52-2.31c0-.08-.2-.56-.22-.56s0,.26,0,.31,0,1.52,0,1.68c0,.55,0,.75-.2.91a1.36,1.36,0,0,1-.71.24c-.05,0-.07,0-.1-.06a1.09,1.09,0,0,0-.18-.31l-.34-.31s0,0,.26,0c.68,0,.72-.09.72-.75,0-.42,0-2.32,0-2.59s-.14-.26-.32-.26Zm0-2.46c-.12,0-.24,0-.27.19v.52c0,.24.17.24.28.24h2.36c.27,0,.27,0,.27-.7,0-.25-.18-.25-.27-.25Zm0,1.18c-.1,0-.27,0-.27.25,0,.77,0,.79.27.79h2.4a.22.22,0,0,0,.25-.24c0-.76,0-.8-.26-.8Z" transform="translate(0)"/><path class="cls-2" d="M105.72,37.53c.32,0,.33,0,.51-.26s.28-.41.35-.41.93.62.93.78-.19.13-.49.13h-2.54c-.08,0-.23,0-.27.12s0,1.28,0,1.68c0,.21,0,1.8,0,1.92s.14.15.27.15h1.83c.32,0,.35,0,.47-.16.34-.44.37-.5.44-.5a3.26,3.26,0,0,1,1,.81c0,.1,0,.1-.46.1h-6.2c-.79,0-1.05,0-1.14,0l-.19,0s0,0-.08-.06l-.17-.21,0-.05a0,0,0,0,1,0,0l.4,0c.44,0,.82,0,1.24,0h1.61c.29,0,.29-.06.29-.66,0-.9,0-5.81-.06-6.39,0-.05,0-.29,0-.34s0-.06,0-.06a6.86,6.86,0,0,1,.87.24c.08,0,.22.06.22.15s0,.07-.16.14-.12.2-.14.55c0,.74,0,.9,0,1.93,0,.21,0,.31.29.31Z" transform="translate(0)"/><path class="cls-2" d="M117.84,37.66a.33.33,0,0,0,.24-.07s.19-.2.24-.2.59.39.59.55,0,.1-.15.17-.12.15-.17.76c-.1,1.09-.33,3.48-1.23,3.48a.14.14,0,0,1-.15-.11c0-.3,0-.37-.2-.49s-.33-.14-.33-.2.05,0,.08,0l.36,0c.23,0,.44-.05.57-.59a13.87,13.87,0,0,0,.37-2.82c0-.24-.05-.25-.3-.25h-.36c-.17,0-.24,0-.26.21a15.31,15.31,0,0,1-.36,1.69,4,4,0,0,1-1.41,2.31,0,0,0,0,1,0,0c0-.05.37-.69.44-.83a13,13,0,0,0,.91-4.75c0-.31,0-.38-.24-.38l-.74,0s-.05,0-.08-.06l-.18-.21s0,0,0-.06,0,0,0,0l1.06.06c.34,0,.34,0,.34-1a2,2,0,0,0,0-.48,2.49,2.49,0,0,1-.08-.25s0-.05.06-.05.5.08.59.1.3.06.3.16a3.3,3.3,0,0,1-.2.34,3.86,3.86,0,0,0,0,.87c0,.16,0,.25.21.25a1.3,1.3,0,0,0,.4,0c.09,0,.41-.53.53-.53s.61.6.61.67-.19.12-.49.12h-1.17s-.05,0-.05,0,.08.1.08.12-.19.17-.22.21a5.37,5.37,0,0,0-.11,1c0,.2.13.2.28.2Zm3.58,1.28a4.68,4.68,0,0,0,1.11-2c0-.06,0-.41.08-.41s.76.64.76.78a.07.07,0,0,1,0,.05.61.61,0,0,0-.34.21c-.39.49-.93,1-1,1.12-.41.41-.45.47-.45.51a5.82,5.82,0,0,0,1.75,1.92c.09.06.57.38.57.4s0,0-.23.06a1.22,1.22,0,0,0-.52.15s-.15.15-.19.15a7.15,7.15,0,0,1-2.19-3.93c-.05-.22-.05-.25-.1-.25s-.2.19-.21.21a1.52,1.52,0,0,0,0,.27c0,.73,0,2.21,0,2.84,0,.15,0,.9,0,1,0,.26-.11.4-.44.4s-.27-.07-.27-.18,0-.34,0-.4c.05-1.1.05-1.44.05-2.11,0-.16,0-1,0-1.13s0-.14-.05-.14a6.17,6.17,0,0,1-1.07.64s0,0,0,0a5.24,5.24,0,0,1,.38-.36,6.22,6.22,0,0,0,1.57-2.31c0-.11,0-.15.07-.15s.77.44.77.62,0,.06-.14.1a2.59,2.59,0,0,0-.52.59A3.56,3.56,0,0,0,121.41,38.94Zm-1.25-3.1c-.27,0-.3.05-.45.31a4.48,4.48,0,0,1-.91,1.13.07.07,0,0,1-.06-.06,3.2,3.2,0,0,1,.18-.35,8.41,8.41,0,0,0,.88-2.54s0-.19,0-.21,0-.06.06-.06.84.32.84.48-.23.18-.26.23a7,7,0,0,0-.35.75c0,.08.06.08.14.08H122c.24,0,.37,0,.47-.14.25-.37.28-.42.36-.42s.75.49.75.65-.15.14-.49.14Z" transform="translate(0)"/><path class="cls-2" d="M132.67,39.94c-.8,0-1.06,0-1.14,0l-.2,0s0,0-.07-.06l-.18-.21s0,0,0-.05,0,0,0,0l.4,0,1.24,0h1.82c.14,0,.27,0,.27-.23s0-.27,0-.35,0-.22,0-.25.06-.1.09-.1.74.07.74.25-.08.11-.15.18a.36.36,0,0,0-.05.23c0,.25.1.27.28.27h1.88a1.42,1.42,0,0,0,.43,0c.09,0,.38-.44.47-.44a2.5,2.5,0,0,1,.71.61c0,.11,0,.11-.41.11H135.8c-.1,0-.15,0-.15.05a6.06,6.06,0,0,0,3.17,1.42,3.37,3.37,0,0,1,.58.1,4.31,4.31,0,0,1-.42.17,1,1,0,0,0-.41.4c0,.05-.05.07-.12.07a7.06,7.06,0,0,1-2.89-1.87s-.07-.08-.12-.08-.06,0-.06.06,0,.24,0,.39c0,.67,0,.74,0,1,0,.06,0,.3,0,.34,0,.29-.15.35-.37.35s-.28-.05-.28-.27.05-.85.05-1c0-.51,0-.55-.11-.55s-.07,0-.33.17a9.86,9.86,0,0,1-3.1,1.45l-.28.06s0,0,0,0a1.74,1.74,0,0,1,.3-.17A15.65,15.65,0,0,0,134,40.35c.27-.22.3-.25.3-.32s-.09-.09-.19-.09Zm.25-1.72c.06,0,.11,0,.11-.09a7.34,7.34,0,0,0-.18-.72s0-.05,0-.05a2.08,2.08,0,0,1,.79,1.23c0,.34-.16.48-.31.48s-.14,0-.22-.43c0-.1-.05-.19-.13-.19l-1.45.41s-.25.2-.31.2-.3-.76-.3-.79,0-.12.07-.12.21.11.25.12a1.82,1.82,0,0,0,.32,0c.17,0,.21-.06.38-.39a10.82,10.82,0,0,0,1-2.15c0-.22,0-.24.1-.24a1.76,1.76,0,0,1,.67.53.21.21,0,0,1-.11.19.74.74,0,0,0-.34.27c-.14.19-.75,1.11-.91,1.32s-.27.35-.27.41,0,.05.13,0ZM132,35.83c.15,0,.43-.84.53-1.43,0-.2,0-.22.11-.22s.72.44.72.57-.08.1-.24.16a.85.85,0,0,0-.34.39,6.9,6.9,0,0,0-.5.79.25.25,0,0,0,.07.15.51.51,0,0,1,.1.29c0,.22-.12.43-.25.43a.18.18,0,0,1-.11-.05c0-.05-.2-.32-.24-.39a5.13,5.13,0,0,0-.57-.92c-.08-.11-.09-.13-.07-.15S131.91,35.83,132,35.83Zm3.29-.4a.4.4,0,0,0,.36-.14c.07-.08.09-.11.17-.11s.53.24.53.34-.18.15-.21.18,0,.06,0,.3v1.68c0,.09.05.47.05.55,0,.31-.32.34-.39.34s-.21-.05-.24-.18-.14-.13-.22-.13h-.56c-.16,0-.19,0-.24.14a.37.37,0,0,1-.33.2c-.21,0-.21-.2-.21-.32s0-.63,0-.74,0-1,0-1.21,0-.76,0-.84-.05-.24-.05-.27,0-.07.1-.07.27.09.32.09c.22,0,.32-.9.32-.93s0-.15.11-.15a2,2,0,0,1,.36.15c.23.1.27.12.27.23s-.24.23-.27.26a4.84,4.84,0,0,0-.39.54c0,.06.07.06.13.06Zm-.51.25c-.25,0-.25.06-.25.35,0,.52,0,.58.05.62a.3.3,0,0,0,.19,0h.54c.07,0,.18,0,.23-.08s0-.51,0-.77-.16-.16-.25-.16Zm.54,2.36c.15,0,.25,0,.25-.24a6.59,6.59,0,0,0,0-.71c0-.15-.15-.15-.24-.15h-.53c-.25,0-.25.06-.25.64,0,.4,0,.46.25.46Zm2.88.12a.1.1,0,0,0,.09-.1c0-.11-.16-.64-.16-.68s0,0,0,0a2.07,2.07,0,0,1,.78,1.22c0,.33-.15.49-.31.49s-.15,0-.22-.43c0-.14,0-.18-.14-.18s-1.25.34-1.29.36-.25.19-.31.19-.3-.76-.3-.79,0-.11.07-.11a.41.41,0,0,1,.14.06.43.43,0,0,0,.25.06c.18,0,.22,0,.45-.42a10.77,10.77,0,0,0,1-1.92c0-.14.05-.22.1-.22s.17.05.4.28.27.26.27.34a.16.16,0,0,1-.12.15c-.27.12-.29.15-.52.44s-1.06,1.2-1.06,1.28.05.06.14.06S138.13,38.17,138.19,38.15Zm-1-2.56a6,6,0,0,0,.38-1.23c0-.22,0-.23.12-.23s.71.45.71.58-.09.1-.24.16a.6.6,0,0,0-.28.28,7.6,7.6,0,0,0-.56.85c0,.05.08.15.15.24a.73.73,0,0,1,.14.43c0,.22-.12.39-.21.39s-.13-.06-.17-.13-.15-.25-.37-.66c-.06-.12-.48-.66-.48-.68l0,0a5.44,5.44,0,0,1,.59.25C137.12,35.83,137.13,35.8,137.22,35.59Z" transform="translate(0)"/><path class="cls-2" d="M148.56,35c-.79,0-1.05,0-1.14,0l-.19,0s-.05,0-.08-.05l-.17-.21s0,0,0-.06,0,0,0,0l.4,0c.44,0,.82,0,1.24,0h4c.37,0,.42,0,.49-.06s.36-.43.45-.43a2.76,2.76,0,0,1,.84.63c0,.09,0,.09-.48.09h-2.68c-.27,0-.27.1-.27.61,0,.28,0,2.72,0,2.78s.18.15.28.15H153c.42,0,.46,0,.58-.15.26-.36.3-.4.38-.4s.75.62.75.67-.18.12-.48.12h-3c-.18,0-.29,0-.29.31s0,2.1,0,2.44,0,.93-.45.93c-.3,0-.3-.26-.3-.35,0-.43.05-2.3.05-2.68,0-.58,0-.65-.29-.65h-1.85c-.8,0-1.06,0-1.15,0l-.19,0s0,0-.08-.06l-.17-.21s0,0,0-.05a0,0,0,0,1,0,0l.4,0,1.25,0H150c.09,0,.22,0,.26-.1a4.43,4.43,0,0,0,0-.8s0-2.42,0-2.46-.11-.17-.25-.17Zm-1,.66c.13,0,1.5.88,1.5,1.87a.43.43,0,0,1-.4.46c-.25,0-.29-.13-.44-.74a4.49,4.49,0,0,0-.46-1.16c0-.05-.22-.32-.24-.36S147.5,35.63,147.55,35.63Zm6.06.59a7.81,7.81,0,0,0-.87,1.11,3.2,3.2,0,0,1-.84.77.08.08,0,0,1-.08-.07l.18-.3a5.82,5.82,0,0,0,1-2.2c0-.17,0-.2.05-.2s.86.51.86.66S153.85,36.08,153.61,36.22Z" transform="translate(0)"/><path class="cls-2" d="M168,35.73s0,0,0,0c.25,0,2.21.94,2.21,1.94a.42.42,0,0,1-.37.47c-.17,0-.21-.07-.59-.74-.15-.25-.22-.28-.35-.28s-1.11.12-1.32.14a42.22,42.22,0,0,0-4.81.51,1,1,0,0,1-.2.13c-.17,0-.28-.84-.28-.92s0-.07.08-.07l.28,0,1.18.07c.32,0,.37,0,.53-.28a8.15,8.15,0,0,0,1.17-2.43c0-.15,0-.17.06-.17s1.1.33,1.1.54a.11.11,0,0,1-.05.09s-.23.07-.26.1a6.3,6.3,0,0,0-.66.8c-.15.2-1,1.21-1,1.28s.18.07.2.07c.91,0,2.6-.06,3.55-.14.28,0,.31,0,.33-.06S168,35.83,168,35.73Zm0,3a.45.45,0,0,0,.38-.12c.19-.19.21-.22.27-.22s.54.31.54.51-.06.13-.14.18-.14.11-.14,1c0,.2,0,1.21,0,1.43,0,.64-.47.64-.51.64-.25,0-.25-.14-.25-.35s-.19-.25-.27-.25h-3.69c-.21,0-.27.07-.28.24a.54.54,0,0,1-.53.55c-.06,0-.23,0-.23-.32,0,0,0-.14,0-.26,0-.55,0-1.75,0-1.89,0-.5,0-.78,0-1.1,0,0,0-.22,0-.26s.05-.07.12-.07a2.79,2.79,0,0,1,.68.22,1,1,0,0,0,.4.06Zm-3.78.25c-.28,0-.29.13-.29.36v1.5c0,.37,0,.48.28.48H168c.27,0,.28-.13.28-.36v-1.5c0-.38,0-.48-.28-.48Z" transform="translate(0)"/></g></svg>